<svg version="1.1" id="Layer_1" xmlns="http://www.w3.org/2000/svg" xmlns:xlink="http://www.w3.org/1999/xlink" x="0px" y="0px"
	 width="100%" viewBox="0 0 736 1041" enable-background="new 0 0 736 1041" xml:space="preserve">
<path fill="none" opacity="1.000000" stroke="#000000" stroke-linecap="round" stroke-linejoin="round" stroke-width="3.000000"
	d="
M365.000000,775.500000 
	C365.000000,818.833313 364.728607,862.170105 365.273529,905.496582 
	C365.361847,912.521057 363.155792,919.500000 365.000000,926.500000 
"/>
<path fill="none" opacity="1.000000" stroke="#000000" stroke-linecap="round" stroke-linejoin="round" stroke-width="3.000000"
	d="
M373.000000,779.000000 
	C380.467682,783.105957 387.309052,788.254700 394.975098,792.050293 
	C398.187714,793.640991 399.218842,796.074463 398.105164,800.029602 
	C390.696289,826.341248 383.747711,852.778870 376.190857,879.054871 
	C373.542206,888.264404 370.959381,897.569275 368.866425,906.970276 
	C368.501434,908.609680 368.444550,910.888916 366.500000,912.000000 
"/>
<path fill="none" opacity="1.000000" stroke="#000000" stroke-linecap="round" stroke-linejoin="round" stroke-width="3.000000"
	d="
M413.500000,107.500000 
	C411.239746,116.874832 411.723328,126.511505 411.210754,136.011368 
	C410.842438,142.837402 409.804382,149.633224 409.956207,156.500961 
	C410.036591,160.138123 407.377380,161.755615 404.559601,163.591507 
	C396.988678,168.524277 389.451141,173.531494 382.958405,179.957977 
	C378.299408,184.569443 374.427338,189.661133 371.500000,195.500000 
"/>
<path fill="none" opacity="1.000000" stroke="#000000" stroke-linecap="round" stroke-linejoin="round" stroke-width="2.000000"
	d="
M369.500000,330.500000 
	C369.317047,337.166260 369.735321,343.831146 369.077362,350.507629 
	C368.627441,355.073364 368.912598,359.625763 370.931274,364.031494 
	C373.493622,369.623566 372.879974,375.638184 371.940460,381.490448 
	C371.192322,386.150696 369.733521,390.695679 369.990295,395.500519 
	C370.109985,397.740601 369.342926,399.725403 368.070221,401.572174 
	C369.683197,402.960693 370.158905,405.079987 371.000000,407.000000 
"/>
<path fill="none" opacity="1.000000" stroke="#000000" stroke-linecap="round" stroke-linejoin="round" stroke-width="2.000000"
	d="
M327.500000,590.500000 
	C328.867462,598.289307 328.773438,606.170898 328.414917,613.996094 
	C327.955261,624.029541 329.058472,633.774719 331.342743,643.536804 
	C332.145996,646.969727 334.340607,649.562195 335.239685,652.936096 
	C336.084747,656.107300 338.523041,658.544128 338.898163,662.461853 
	C339.210693,665.726013 343.421875,668.244812 346.500000,670.500000 
"/>
<path fill="none" opacity="1.000000" stroke="#000000" stroke-linecap="round" stroke-linejoin="round" stroke-width="3.000000"
	d="
M367.500000,63.500000 
	C367.166656,88.000000 367.034302,112.505325 366.385254,136.996964 
	C366.173157,145.000153 365.351074,153.085632 366.167999,160.982620 
	C367.997345,178.666458 366.604309,196.335007 366.901398,214.001663 
	C367.055359,223.158905 365.874664,232.333328 367.000000,241.500000 
"/>
<path fill="none" opacity="1.000000" stroke="#000000" stroke-linecap="round" stroke-linejoin="round" stroke-width="3.000000"
	d="
M315.000000,48.500000 
	C315.333344,59.500000 315.866699,70.499626 315.887177,81.500214 
	C315.893982,85.154991 316.764587,86.578178 320.452698,87.661118 
	C327.933960,89.857857 333.682495,94.860619 338.547668,100.961975 
	C341.111328,104.177032 343.775635,107.560707 347.089386,109.871826 
	C352.388855,113.567818 354.273071,119.050980 356.500000,124.500000 
"/>
<path fill="none" opacity="1.000000" stroke="#000000" stroke-linecap="round" stroke-linejoin="round" stroke-width="2.000000"
	d="
M316.500000,169.500000 
	C315.416382,185.227921 321.717133,197.455475 333.974121,207.033142 
	C340.960815,212.492584 347.384125,218.535477 353.117676,225.401733 
	C356.628387,229.606018 357.841003,234.944351 361.315521,239.152313 
	C362.759918,240.901596 362.166656,244.333328 362.500000,247.000000 
"/>
<path fill="none" opacity="1.000000" stroke="#000000" stroke-linecap="round" stroke-linejoin="round" stroke-width="2.000000"
	d="
M351.000000,365.500000 
	C352.863129,377.599884 354.419952,389.733978 354.470856,402.000122 
	C354.488159,406.166016 353.305054,410.522186 354.168732,414.463013 
	C356.367432,424.495117 355.494843,434.529999 354.820190,444.487823 
	C354.277985,452.489838 355.874786,460.617188 353.500000,468.500000 
"/>
<path fill="none" opacity="1.000000" stroke="#000000" stroke-linecap="round" stroke-linejoin="round" stroke-width="2.000000"
	d="
M378.500000,202.500000 
	C388.783875,193.619995 401.188293,188.308762 413.030579,182.088821 
	C415.548920,189.405975 411.384491,196.998978 402.988586,199.967758 
	C400.060089,201.003281 396.997711,201.658569 394.000458,202.501633 
	C387.335205,204.376419 381.751465,208.148407 376.500000,212.500000 
"/>
<path fill="none" opacity="1.000000" stroke="#000000" stroke-linecap="round" stroke-linejoin="round" stroke-width="2.000000"
	d="
M366.500000,540.500000 
	C363.823517,544.236877 363.506439,548.796326 362.662567,553.032410 
	C361.870209,557.009644 360.474182,560.250854 358.141876,563.598816 
	C354.395599,568.976501 354.492065,575.083313 357.507996,580.995911 
	C358.456543,582.855469 359.500000,584.666687 360.500000,586.500000 
"/>
<path fill="none" opacity="1.000000" stroke="#000000" stroke-linecap="round" stroke-linejoin="round" stroke-width="3.000000"
	d="
M417.000000,161.500000 
	C413.932037,165.286972 410.497070,168.612549 406.554840,171.573044 
	C397.671661,178.244049 387.668427,183.318085 379.447601,190.943512 
	C376.445374,193.728302 373.264069,196.177032 372.500000,200.500000 
"/>
<path fill="none" opacity="1.000000" stroke="#000000" stroke-linecap="round" stroke-linejoin="round" stroke-width="2.000000"
	d="
M413.000000,49.000000 
	C412.320923,50.713955 411.642151,52.190758 410.098236,53.607075 
	C403.830750,59.356548 396.503998,63.651791 388.892761,66.735252 
	C380.370575,70.187767 373.914642,75.117180 369.469360,82.982681 
	C369.205536,83.449501 368.500000,83.666679 368.000000,84.000008 
"/>
<path fill="none" opacity="1.000000" stroke="#000000" stroke-linecap="round" stroke-linejoin="round" stroke-width="3.000000"
	d="
M410.000000,76.999992 
	C403.000000,80.166656 395.969269,83.267639 389.011047,86.523567 
	C384.522095,88.624062 380.629120,91.686508 377.038116,95.040794 
	C373.856323,98.012840 371.000031,101.333351 368.000031,104.500015 
"/>
<path fill="none" opacity="1.000000" stroke="#000000" stroke-linecap="round" stroke-linejoin="round" stroke-width="2.000000"
	d="
M360.500000,353.500000 
	C360.592987,360.902405 360.319000,368.210999 358.612518,375.526245 
	C356.684235,383.792511 361.585388,391.375824 362.071808,399.495697 
	C362.311829,403.502777 362.088013,408.045380 368.293671,409.909668 
	C369.989197,409.814453 371.723785,407.433289 374.000000,406.000000 
"/>
<path fill="none" opacity="1.000000" stroke="#000000" stroke-linecap="round" stroke-linejoin="round" stroke-width="2.000000"
	d="
M316.000000,51.500000 
	C318.958923,54.768555 319.295990,59.585041 322.936859,62.576824 
	C326.069153,65.150696 329.466949,67.118393 332.984497,69.028542 
	C339.962219,72.817688 346.683685,77.012466 352.500000,82.500000 
"/>
<path fill="none" opacity="1.000000" stroke="#000000" stroke-linecap="round" stroke-linejoin="round" stroke-width="2.000000"
	d="
M411.000000,100.000000 
	C412.019928,100.808189 413.039856,101.616371 414.302368,102.616783 
	C409.219086,108.422142 401.905579,110.695267 395.991241,114.987953 
	C389.077362,120.006142 381.778290,124.556160 376.500000,131.500000 
"/>
<path fill="none" opacity="1.000000" stroke="#000000" stroke-linecap="round" stroke-linejoin="round" stroke-width="2.000000"
	d="
M312.500000,161.500000 
	C315.342438,168.127090 320.948273,172.824814 324.633209,178.919464 
	C327.635620,183.885361 333.364563,186.038391 338.550537,187.855759 
	C348.742249,191.427292 355.770538,198.074768 360.462769,207.518494 
	C360.841797,208.281342 361.097015,208.902969 362.000000,209.000000 
"/>
<path fill="none" opacity="1.000000" stroke="#000000" stroke-linecap="round" stroke-linejoin="round" stroke-width="2.000000"
	d="
M358.500000,173.500000 
	C355.097290,168.265549 351.008514,164.072983 345.081421,161.324417 
	C340.189270,159.055786 336.101501,155.326462 332.836334,150.613388 
	C330.769806,147.630463 328.052704,144.783096 324.547455,142.911148 
	C322.264435,141.691925 320.736176,139.408615 321.521729,136.505890 
	C322.898224,131.419769 322.660522,126.144371 323.500000,121.000000 
"/>
<path fill="none" opacity="1.000000" stroke="#000000" stroke-linecap="round" stroke-linejoin="round" stroke-width="2.000000"
	d="
M319.000000,97.000000 
	C320.971466,102.739723 321.137787,108.671875 319.874115,114.472572 
	C319.154663,117.775131 319.830322,119.278381 322.995697,120.018433 
	C328.314819,121.262024 332.737244,124.058884 336.513062,127.987457 
	C339.615723,131.215637 343.053253,134.146576 345.942596,137.548737 
	C349.318634,141.523911 353.703918,143.290634 358.500000,144.500000 
"/>
<path fill="none" opacity="1.000000" stroke="#000000" stroke-linecap="round" stroke-linejoin="round" stroke-width="2.000000"
	d="
M328.500000,183.500000 
	C335.712250,196.287750 344.769440,207.230560 358.500000,213.500000 
"/>
<path fill="none" opacity="1.000000" stroke="#000000" stroke-linecap="round" stroke-linejoin="round" stroke-width="2.000000"
	d="
M350.000000,736.500000 
	C351.106964,738.766174 350.449066,741.176147 350.437988,743.499695 
	C350.425598,746.102173 351.168762,747.534546 354.000092,747.517456 
	C361.036255,747.474915 368.128143,748.294067 375.000000,746.000000 
"/>
<path fill="none" opacity="1.000000" stroke="#000000" stroke-linecap="round" stroke-linejoin="round" stroke-width="2.000000"
	d="
M371.500000,258.500000 
	C373.097656,262.143372 371.765717,265.322205 369.426117,267.933807 
	C367.712067,269.847137 365.834717,271.741333 364.146698,273.631042 
	C360.901642,277.263916 357.866699,281.370667 359.838013,287.056152 
	C360.153564,287.966125 360.468384,289.296722 360.534058,290.498138 
	C360.816803,295.670349 359.371552,298.318359 356.000000,298.500031 
	C352.351959,298.696594 350.511444,295.945801 350.437958,290.500824 
	C350.428558,289.802429 349.575226,289.115448 349.109894,288.418762 
	C345.480133,291.101990 344.345917,295.696075 346.529785,298.980194 
	C347.169556,299.942261 348.352966,300.549774 348.963379,301.522949 
	C350.496826,303.967621 354.508972,304.443329 354.457031,307.999359 
	C354.363922,314.379272 355.251923,320.848083 352.542603,327.018707 
	C350.904114,330.750458 352.888611,334.641357 352.697205,338.509766 
	C352.587280,340.731293 352.869720,343.165588 352.983948,345.500793 
	C353.152313,348.943176 352.643311,352.338654 354.908203,355.564453 
	C357.230804,358.872437 357.368103,362.628632 354.422882,366.097595 
	C350.850494,365.358582 350.459259,362.210815 349.500000,359.500000 
"/>
<path fill="none" opacity="1.000000" stroke="#000000" stroke-linecap="round" stroke-linejoin="round" stroke-width="2.000000"
	d="
M370.500000,575.000000 
	C372.126617,577.274658 371.863617,579.908508 372.026703,582.498291 
	C372.446869,589.170044 373.467438,595.843018 373.329712,602.496460 
	C373.243073,606.682068 371.469849,610.826355 370.510040,615.002319 
	C369.808289,618.055359 368.162415,617.594971 366.529327,615.970520 
	C364.221069,613.674500 364.401703,610.368042 363.500000,607.500000 
"/>
<path fill="none" opacity="1.000000" stroke="#000000" stroke-linecap="round" stroke-linejoin="round" stroke-width="2.000000"
	d="
M347.500000,717.500000 
	C349.760132,720.260010 352.020233,723.019958 354.205139,725.688110 
	C352.862091,727.730042 351.254913,726.554871 350.007935,726.424316 
	C342.437744,725.631775 336.686707,731.012390 334.638245,737.543335 
	C333.780121,740.279297 333.578186,743.592224 336.465607,746.040527 
	C338.878448,748.086426 341.222961,748.744324 344.509857,746.974548 
	C341.220642,743.654175 342.545959,740.724182 345.016998,738.015503 
	C346.764801,736.099731 354.801727,734.011536 356.484772,735.025330 
	C358.119019,736.009766 358.896545,737.527466 358.500000,739.500000 
"/>
<path fill="none" opacity="1.000000" stroke="#000000" stroke-linecap="round" stroke-linejoin="round" stroke-width="2.000000"
	d="
M403.000000,207.500000 
	C400.627106,206.021652 398.866913,208.216034 397.601379,209.139008 
	C389.706757,214.896652 381.048096,218.659500 371.500000,220.500000 
"/>
<path fill="none" opacity="1.000000" stroke="#000000" stroke-linecap="round" stroke-linejoin="round" stroke-width="2.000000"
	d="
M369.500000,501.500000 
	C368.664276,507.085022 364.738922,510.887329 361.425751,514.939270 
	C359.163208,517.706360 358.397400,520.636047 358.502319,523.999939 
	C358.651581,528.784790 360.580109,533.743469 356.609924,538.100159 
	C356.021027,538.746338 355.855988,540.994324 357.500000,542.000000 
"/>
<path fill="none" opacity="1.000000" stroke="#000000" stroke-linecap="round" stroke-linejoin="round" stroke-width="2.000000"
	d="
M324.500000,50.500000 
	C326.744476,58.921558 332.961212,63.815044 339.995148,68.008156 
	C343.896393,70.333801 347.989685,72.444115 350.500000,76.500000 
"/>
<path fill="none" opacity="1.000000" stroke="#000000" stroke-linecap="round" stroke-linejoin="round" stroke-width="2.000000"
	d="
M409.500000,203.500000 
	C406.138184,205.258514 403.674469,207.827698 401.396393,210.923767 
	C397.918457,215.650543 393.087585,219.320297 387.926849,221.850784 
	C379.174622,226.142288 373.566833,233.206100 368.515686,241.010147 
	C366.878662,243.539413 366.149811,246.682037 362.548065,247.674454 
	C361.712463,247.904694 360.071991,249.619339 360.500000,251.500000 
"/>
<path fill="none" opacity="1.000000" stroke="#000000" stroke-linecap="round" stroke-linejoin="round" stroke-width="2.000000"
	d="
M367.500000,366.500000 
	C367.329498,376.911926 366.033447,387.139374 362.500000,397.000000 
"/>
<path fill="none" opacity="1.000000" stroke="#000000" stroke-linecap="round" stroke-linejoin="round" stroke-width="2.000000"
	d="
M330.500000,56.500000 
	C334.575012,59.652927 339.412750,61.387321 344.035858,63.418392 
	C350.711212,66.351089 355.410339,71.027405 358.500000,77.500000 
"/>
<path fill="none" opacity="1.000000" stroke="#000000" stroke-linecap="round" stroke-linejoin="round" stroke-width="2.000000"
	d="
M367.000000,272.500000 
	C367.166656,272.666687 367.444977,272.810791 367.483856,273.003265 
	C369.025604,280.636627 366.753510,288.322296 367.809357,296.026123 
	C368.108551,298.209320 366.104614,300.708191 364.988007,303.481903 
	C372.266113,308.776886 373.406250,316.120880 370.500000,324.500000 
"/>
<path fill="none" opacity="1.000000" stroke="#000000" stroke-linecap="round" stroke-linejoin="round" stroke-width="3.000000"
	d="
M355.500000,487.500000 
	C356.902527,489.639923 357.491577,491.655701 357.193817,494.520142 
	C356.559601,500.620880 357.099701,506.835968 356.938385,512.998413 
	C356.890900,514.812317 358.118561,515.456055 359.000000,516.500000 
"/>
<path fill="none" opacity="1.000000" stroke="#000000" stroke-linecap="round" stroke-linejoin="round" stroke-width="3.000000"
	d="
M365.000031,164.500000 
	C364.666687,168.666672 364.046173,172.833588 364.049835,176.999954 
	C364.065521,194.842102 362.354126,212.646378 362.946045,230.501785 
	C363.011902,232.488556 362.333344,234.500000 362.000031,236.500000 
"/>
<path fill="none" opacity="1.000000" stroke="#000000" stroke-linecap="round" stroke-linejoin="round" stroke-width="2.000000"
	d="
M406.500000,123.500000 
	C398.317902,128.281509 389.887604,132.705002 383.482819,139.984879 
	C381.969513,141.705032 380.162445,143.178757 379.500000,145.500000 
"/>
<path fill="none" opacity="1.000000" stroke="#000000" stroke-linecap="round" stroke-linejoin="round" stroke-width="2.000000"
	d="
M370.500000,627.500000 
	C373.123138,632.518921 370.955750,637.843506 371.308441,643.013062 
	C372.090271,654.471069 371.858673,665.999756 371.974060,677.500244 
	C371.992432,679.331726 371.666687,681.166687 371.500000,683.000000 
"/>
<path fill="none" opacity="1.000000" stroke="#000000" stroke-linecap="round" stroke-linejoin="round" stroke-width="2.000000"
	d="
M361.500000,567.500000 
	C366.166321,561.398193 368.465271,554.257141 370.157074,546.806396 
	C373.171021,553.333984 373.386841,559.286255 368.015472,564.515869 
	C365.502930,566.962097 364.042816,570.021423 363.500000,573.500000 
"/>
<path fill="none" opacity="1.000000" stroke="#000000" stroke-linecap="round" stroke-linejoin="round" stroke-width="2.000000"
	d="
M356.500000,652.500000 
	C361.173187,659.501282 355.941345,664.612732 352.930603,669.960938 
	C349.813232,675.498474 349.570740,675.361938 354.000000,680.500000 
	C360.349701,677.550659 360.716278,673.335083 355.000000,669.000000 
"/>
<path fill="none" opacity="1.000000" stroke="#000000" stroke-linecap="round" stroke-linejoin="round" stroke-width="2.000000"
	d="
M386.500000,759.500000 
	C388.624512,762.245422 392.325775,763.668579 392.577484,767.995483 
	C392.934296,774.129517 390.812897,778.745605 383.983307,781.964539 
	C383.073914,782.393127 381.773254,782.066528 381.500000,783.500000 
"/>
<path fill="none" opacity="1.000000" stroke="#000000" stroke-linecap="round" stroke-linejoin="round" stroke-width="2.000000"
	d="
M332.500000,166.500000 
	C336.180603,171.892883 341.513458,175.382187 347.055298,178.398376 
	C350.387878,180.212143 353.584229,182.102737 356.500000,184.500000 
"/>
<path fill="none" opacity="1.000000" stroke="#000000" stroke-linecap="round" stroke-linejoin="round" stroke-width="2.000000"
	d="
M324.000000,143.500000 
	C322.437683,151.424057 321.682648,159.432220 321.500000,167.500000 
"/>
<path fill="none" opacity="1.000000" stroke="#000000" stroke-linecap="round" stroke-linejoin="round" stroke-width="2.000000"
	d="
M370.000000,417.000000 
	C370.348969,419.635376 372.972046,417.722565 374.334290,419.417053 
	C371.230347,422.960968 371.302917,427.467896 371.499146,432.000031 
	C371.639160,435.233978 370.457184,438.004486 368.500000,440.500000 
"/>
<path fill="none" opacity="1.000000" stroke="#000000" stroke-linecap="round" stroke-linejoin="round" stroke-width="2.000000"
	d="
M353.500000,810.500000 
	C354.942627,818.759766 358.646698,826.359985 360.500000,834.500000 
"/>
<path fill="none" opacity="1.000000" stroke="#000000" stroke-linecap="round" stroke-linejoin="round" stroke-width="2.000000"
	d="
M373.500000,519.500000 
	C374.450195,524.891418 371.913849,529.075134 367.929535,531.900635 
	C359.789429,537.673218 355.276123,544.705322 357.467957,555.006836 
	C357.705444,556.122986 357.500000,557.333313 357.500000,558.500000 
"/>
<path fill="none" opacity="1.000000" stroke="#000000" stroke-linecap="round" stroke-linejoin="round" stroke-width="2.000000"
	d="
M366.500000,716.500000 
	C366.781677,718.508606 367.652954,720.353821 367.587402,722.502686 
	C367.512970,724.940186 366.789856,726.720154 364.486145,727.456604 
	C362.581482,728.065552 361.016418,727.115662 360.022217,725.486450 
	C358.871155,723.600281 359.188171,721.850891 361.008148,720.511047 
	C361.781281,719.941895 361.399323,719.183167 361.500000,718.500000 
"/>
<path fill="none" opacity="1.000000" stroke="#000000" stroke-linecap="round" stroke-linejoin="round" stroke-width="2.000000"
	d="
M363.500000,632.500000 
	C360.764191,639.552185 363.948486,645.543579 367.064117,651.466248 
	C367.797699,652.860779 369.333344,653.833313 370.500000,655.000000 
"/>
<path fill="none" opacity="1.000000" stroke="#000000" stroke-linecap="round" stroke-linejoin="round" stroke-width="3.000000"
	d="
M411.500000,53.500000 
	C410.940735,60.829292 413.479431,68.369812 410.639404,76.555679 
	C410.622009,76.530785 411.960388,77.565048 411.889526,78.491562 
	C411.551361,82.914345 412.955383,87.137932 413.030823,91.499466 
	C413.106201,95.854980 411.746124,99.035950 407.535583,101.073532 
	C403.044220,103.247009 398.833344,106.000000 394.500000,108.500008 
"/>
<path fill="none" opacity="1.000000" stroke="#000000" stroke-linecap="round" stroke-linejoin="round" stroke-width="2.000000"
	d="
M360.500000,414.500000 
	C366.058594,420.848785 365.493835,428.072296 363.500000,435.500000 
"/>
<path fill="none" opacity="1.000000" stroke="#000000" stroke-linecap="round" stroke-linejoin="round" stroke-width="2.000000"
	d="
M355.500000,456.000000 
	C357.166656,458.833344 358.794434,461.690521 360.513306,464.491821 
	C361.710297,466.442657 361.830872,468.416870 361.141876,470.469086 
	C357.218140,472.755432 354.898804,468.064056 351.500000,468.500000 
"/>
<path fill="none" opacity="1.000000" stroke="#000000" stroke-linecap="round" stroke-linejoin="round" stroke-width="3.000000"
	d="
M354.000000,880.500000 
	C355.898895,892.612488 359.354950,904.330200 363.000000,916.000000 
"/>
<path fill="none" opacity="1.000000" stroke="#000000" stroke-linecap="round" stroke-linejoin="round" stroke-width="2.000000"
	d="
M357.500000,261.500000 
	C360.251801,267.393494 357.210510,272.427368 354.918213,277.462769 
	C354.106110,279.246582 353.820190,280.748688 354.500000,282.500000 
"/>
<path fill="none" opacity="1.000000" stroke="#000000" stroke-linecap="round" stroke-linejoin="round" stroke-width="2.000000"
	d="
M405.500000,130.500015 
	C399.500000,133.833344 393.493225,137.154587 387.506409,140.511429 
	C386.461212,141.097473 385.500000,141.833328 384.500000,142.500000 
"/>
<path fill="none" opacity="1.000000" stroke="#000000" stroke-linecap="round" stroke-linejoin="round" stroke-width="3.000000"
	d="
M357.500000,683.500000 
	C361.666656,683.666687 365.832428,683.932312 370.000275,683.971436 
	C373.954712,684.008606 373.955688,683.904297 373.440155,689.103638 
	C368.500000,688.687561 363.500000,689.563477 358.500000,688.500000 
"/>
<path fill="none" opacity="1.000000" stroke="#000000" stroke-linecap="round" stroke-linejoin="round" stroke-width="2.000000"
	d="
M363.000000,683.000000 
	C365.446533,675.577332 364.055939,668.922119 359.000000,663.000000 
"/>
<path fill="none" opacity="1.000000" stroke="#000000" stroke-linecap="round" stroke-linejoin="round" stroke-width="2.000000"
	d="
M329.500000,208.500000 
	C333.618256,215.223251 341.420685,217.168655 347.036682,221.956985 
	C347.422699,222.286118 348.333344,222.000000 349.000000,222.000000 
"/>
<path fill="none" opacity="1.000000" stroke="#000000" stroke-linecap="round" stroke-linejoin="round" stroke-width="3.000000"
	d="
M353.000000,257.500000 
	C353.288208,264.168915 352.022491,270.915527 354.000000,277.500000 
"/>
<path fill="none" opacity="1.000000" stroke="#000000" stroke-linecap="round" stroke-linejoin="round" stroke-width="2.000000"
	d="
M358.000000,600.000000 
	C355.989471,604.938538 355.998260,609.893433 357.459625,615.011536 
	C359.290924,621.425171 358.715973,627.977356 358.000000,634.500000 
"/>
<path fill="none" opacity="1.000000" stroke="#000000" stroke-linecap="round" stroke-linejoin="round" stroke-width="2.000000"
	d="
M398.000000,795.500000 
	C390.705963,798.642273 384.846680,803.936646 378.500000,808.500000 
"/>
<path fill="none" opacity="1.000000" stroke="#000000" stroke-linecap="round" stroke-linejoin="round" stroke-width="2.000000"
	d="
M351.500000,755.000000 
	C352.793915,763.614136 354.796936,762.523315 361.000000,762.502625 
	C365.166626,762.488770 369.333344,762.500000 373.500000,762.500000 
"/>
<path fill="none" opacity="1.000000" stroke="#000000" stroke-linecap="round" stroke-linejoin="round" stroke-width="3.000000"
	d="
M342.500000,759.000000 
	C335.479156,767.802124 331.561951,776.509155 344.500000,784.500000 
"/>
<path fill="none" opacity="1.000000" stroke="#000000" stroke-linecap="round" stroke-linejoin="round" stroke-width="2.000000"
	d="
M365.500000,707.500000 
	C371.090576,712.402283 373.456970,718.698792 373.500000,726.000000 
"/>
<path fill="none" opacity="1.000000" stroke="#000000" stroke-linecap="round" stroke-linejoin="round" stroke-width="2.000000"
	d="
M415.500000,165.000000 
	C416.711792,170.393845 413.143127,174.438507 411.404633,178.963364 
	C410.827087,180.466537 409.134338,181.541183 409.500000,183.500000 
"/>
<path fill="none" opacity="1.000000" stroke="#000000" stroke-linecap="round" stroke-linejoin="round" stroke-width="2.000000"
	d="
M356.000000,582.000000 
	C352.697266,589.012207 356.706757,594.641052 359.500000,600.500000 
"/>
<path fill="none" opacity="1.000000" stroke="#000000" stroke-linecap="round" stroke-linejoin="round" stroke-width="2.000000"
	d="
M370.500000,753.500000 
	C365.564026,754.793579 360.521210,754.492676 355.500000,754.498108 
	C348.500000,754.505676 348.500000,754.500000 348.500000,747.500000 
"/>
<path fill="none" opacity="1.000000" stroke="#000000" stroke-linecap="round" stroke-linejoin="round" stroke-width="2.000000"
	d="
M313.500000,87.500000 
	C314.490906,92.796638 317.189392,95.782089 322.971680,96.682007 
	C328.106689,97.481186 333.000000,99.833336 338.000000,101.500000 
"/>
<path fill="none" opacity="1.000000" stroke="#000000" stroke-linecap="round" stroke-linejoin="round" stroke-width="2.000000"
	d="
M361.500000,651.500000 
	C361.666656,653.000000 361.422638,654.710815 362.066803,655.965698 
	C366.195679,664.009583 367.505829,672.603333 367.500000,681.500000 
"/>
<path fill="none" opacity="1.000000" stroke="#000000" stroke-linecap="round" stroke-linejoin="round" stroke-width="2.000000"
	d="
M341.500000,602.500000 
	C339.955139,608.793701 335.303680,613.392944 332.194550,619.290039 
	C336.037842,622.019775 334.598999,627.203308 337.500000,630.500000 
"/>
<path fill="none" opacity="1.000000" stroke="#000000" stroke-linecap="round" stroke-linejoin="round" stroke-width="2.000000"
	d="
M371.500000,770.500000 
	C367.500000,770.500000 363.500000,770.500000 359.500000,770.500000 
	C352.212311,770.500000 350.665833,772.760254 353.000000,780.000000 
"/>
<path fill="none" opacity="1.000000" stroke="#000000" stroke-linecap="round" stroke-linejoin="round" stroke-width="2.000000"
	d="
M318.500000,600.500000 
	C318.833313,601.500000 319.645325,602.624512 319.422821,603.479919 
	C317.908051,609.302368 318.287628,614.943848 320.500000,620.500000 
"/>
<path fill="none" opacity="1.000000" stroke="#000000" stroke-linecap="round" stroke-linejoin="round" stroke-width="2.000000"
	d="
M374.500000,493.500000 
	C377.045380,501.080017 372.880859,506.946625 369.489838,512.994324 
	C367.882477,515.860840 366.166656,518.666687 364.500000,521.500000 
"/>
<path fill="none" opacity="1.000000" stroke="#000000" stroke-linecap="round" stroke-linejoin="round" stroke-width="2.000000"
	d="
M338.000000,768.000000 
	C340.941467,776.032593 345.210815,778.878845 351.500000,777.000000 
"/>
<path fill="none" opacity="1.000000" stroke="#000000" stroke-linecap="round" stroke-linejoin="round" stroke-width="2.000000"
	d="
M374.500000,739.000000 
	C374.657349,742.032166 373.552216,745.406006 376.924652,747.615051 
	C377.082764,747.718628 377.801910,749.187622 377.125641,750.561829 
	C375.464020,753.938538 377.335541,758.285034 374.509399,761.508240 
	C374.271729,761.779297 373.933563,762.341248 374.033630,762.474792 
	C377.901764,767.640320 373.246918,772.486023 373.500000,777.500000 
"/>
<path fill="none" opacity="1.000000" stroke="#000000" stroke-linecap="round" stroke-linejoin="round" stroke-width="2.000000"
	d="
M352.500000,625.500000 
	C353.229340,629.000000 355.106262,632.500000 352.272980,635.802551 
	C358.482727,641.203613 359.288544,648.065308 354.427887,655.452515 
	C353.108521,657.457764 351.518311,659.289978 350.500000,661.500000 
"/>
<path fill="none" opacity="1.000000" stroke="#000000" stroke-linecap="round" stroke-linejoin="round" stroke-width="2.000000"
	d="
M373.000000,237.000000 
	C374.422668,240.751205 373.790131,244.792160 370.879028,246.826920 
	C365.177277,250.812210 362.104828,256.049500 360.500000,262.500000 
"/>
<path fill="none" opacity="1.000000" stroke="#000000" stroke-linecap="round" stroke-linejoin="round" stroke-width="2.000000"
	d="
M356.500000,233.000000 
	C353.581299,232.241852 350.643250,231.538589 348.043304,229.896652 
	C345.484558,231.589493 342.202087,232.517395 342.490662,236.500671 
	C342.565125,237.528748 343.261230,238.272751 344.013062,238.442047 
	C346.398041,238.979202 347.494507,237.241760 348.500000,235.500000 
"/>
<path fill="none" opacity="1.000000" stroke="#000000" stroke-linecap="round" stroke-linejoin="round" stroke-width="2.000000"
	d="
M360.500000,308.500000 
	C364.925049,312.580536 365.544830,317.929504 365.500000,323.500000 
"/>
<path fill="none" opacity="1.000000" stroke="#000000" stroke-linecap="round" stroke-linejoin="round" stroke-width="2.000000"
	d="
M339.500000,618.500000 
	C339.500000,622.000000 339.608795,625.504700 339.456909,628.998108 
	C339.373260,630.922546 339.770935,632.552063 341.000000,634.000000 
"/>
<path fill="none" opacity="1.000000" stroke="#000000" stroke-linecap="round" stroke-linejoin="round" stroke-width="2.000000"
	d="
M343.500000,597.500000 
	C343.877808,603.858032 345.399689,609.898254 348.500000,615.500000 
"/>
<path fill="none" opacity="1.000000" stroke="#000000" stroke-linecap="round" stroke-linejoin="round" stroke-width="2.000000"
	d="
M357.500000,807.500000 
	C357.423950,812.715210 359.718811,817.456238 360.500000,822.500000 
"/>
<path fill="none" opacity="1.000000" stroke="#000000" stroke-linecap="round" stroke-linejoin="round" stroke-width="2.000000"
	d="
M356.500000,692.000000 
	C361.700104,697.889160 368.930237,700.692688 375.500000,704.500000 
"/>
<path fill="none" opacity="1.000000" stroke="#000000" stroke-linecap="round" stroke-linejoin="round" stroke-width="2.000000"
	d="
M371.500000,629.000000 
	C376.442230,627.492920 377.175323,623.006226 378.458923,618.986877 
	C379.005768,617.274658 377.557739,617.478577 376.500000,617.500000 
"/>
<path fill="none" opacity="1.000000" stroke="#000000" stroke-linecap="round" stroke-linejoin="round" stroke-width="2.000000"
	d="
M348.500000,92.500000 
	C351.494049,97.695160 355.702942,101.935776 359.500000,106.500000 
"/>
<path fill="none" opacity="1.000000" stroke="#000000" stroke-linecap="round" stroke-linejoin="round" stroke-width="2.000000"
	d="
M347.000000,682.500000 
	C348.048309,683.967468 349.096588,685.434998 350.170929,686.938965 
	C349.220459,688.206177 348.092133,689.250610 347.600006,690.538208 
	C347.302124,691.317688 346.955017,692.647644 348.000336,693.499573 
	C348.998779,694.313293 350.172150,694.440063 350.962799,693.469727 
	C352.435181,691.662659 354.598694,691.683777 356.451874,691.128052 
	C357.151459,686.250061 352.941589,688.184509 351.013428,687.015625 
	C351.835022,685.227417 351.386993,683.338196 351.500000,681.500000 
"/>
<path fill="none" opacity="1.000000" stroke="#000000" stroke-linecap="round" stroke-linejoin="round" stroke-width="2.000000"
	d="
M333.500000,90.500000 
	C328.924988,87.983330 325.288269,83.590126 319.500000,83.500000 
"/>
<path fill="none" opacity="1.000000" stroke="#000000" stroke-linecap="round" stroke-linejoin="round" stroke-width="2.000000"
	d="
M354.000000,283.500000 
	C352.570099,287.918762 354.428741,292.581146 353.000000,297.000000 
"/>
<path fill="none" opacity="1.000000" stroke="#000000" stroke-linecap="round" stroke-linejoin="round" stroke-width="3.000000"
	d="
M343.000000,674.500000 
	C342.333344,675.000000 341.706543,675.567810 340.992645,675.987488 
	C338.671417,677.352173 338.808655,679.267639 339.463409,681.510681 
	C340.129883,683.793884 341.939789,683.880310 343.473175,683.412170 
	C345.673859,682.740173 347.352570,681.473511 347.094940,678.491821 
	C346.876678,675.965637 346.640533,674.106201 343.500000,674.500000 
"/>
<path fill="none" opacity="1.000000" stroke="#000000" stroke-linecap="round" stroke-linejoin="round" stroke-width="2.000000"
	d="
M358.500000,429.500000 
	C358.500000,426.833344 358.473969,424.166321 358.507477,421.500092 
	C358.539673,418.939514 357.667694,417.731903 355.000000,419.000000 
"/>
<path fill="none" opacity="1.000000" stroke="#000000" stroke-linecap="round" stroke-linejoin="round" stroke-width="2.000000"
	d="
M368.500000,449.000000 
	C372.383972,453.017975 371.202026,457.238586 369.000000,461.500000 
"/>
<path fill="none" opacity="1.000000" stroke="#000000" stroke-linecap="round" stroke-linejoin="round" stroke-width="3.000000"
	d="
M352.500000,696.500000 
	C353.581085,703.747437 354.035980,710.853943 348.000000,716.500000 
"/>
<path fill="none" opacity="1.000000" stroke="#000000" stroke-linecap="round" stroke-linejoin="round" stroke-width="3.000000"
	d="
M375.500000,712.500000 
	C377.433350,716.086365 377.704437,719.698181 376.074097,723.531494 
	C375.660797,724.503235 375.999847,725.638977 374.507111,726.027283 
	C369.257782,727.392578 367.064362,731.897705 364.500000,736.000000 
"/>
<path fill="none" opacity="1.000000" stroke="#000000" stroke-linecap="round" stroke-linejoin="round" stroke-width="2.000000"
	d="
M371.000000,563.000000 
	C373.519928,566.166687 373.035828,569.448364 370.959808,572.472412 
	C368.022034,576.751770 366.086700,581.343567 365.500000,586.500000 
"/>
<path fill="none" opacity="1.000000" stroke="#000000" stroke-linecap="round" stroke-linejoin="round" stroke-width="2.000000"
	d="
M340.000000,767.000000 
	C344.688446,772.372070 346.446167,772.830566 351.500000,770.000000 
"/>
<path fill="none" opacity="1.000000" stroke="#000000" stroke-linecap="round" stroke-linejoin="round" stroke-width="2.000000"
	d="
M333.500000,598.000000 
	C335.492493,601.465210 334.851532,606.007690 338.000000,609.000000 
"/>
<path fill="none" opacity="1.000000" stroke="#000000" stroke-linecap="round" stroke-linejoin="round" stroke-width="2.000000"
	d="
M374.000000,689.500000 
	C375.895874,690.534729 375.945740,692.561584 375.334778,693.926025 
	C374.909241,694.876282 373.074707,694.822205 371.483765,694.671326 
	C368.209076,694.360779 364.788086,693.928345 361.500000,695.000000 
"/>
<path fill="none" opacity="1.000000" stroke="#000000" stroke-linecap="round" stroke-linejoin="round" stroke-width="2.000000"
	d="
M354.500000,727.000000 
	C357.080017,728.724182 360.270905,729.718018 361.951660,732.528931 
	C363.025543,734.324890 364.535004,736.048401 364.024689,738.505127 
	C363.429504,741.370483 364.698608,743.206970 367.547760,743.900757 
	C369.965698,738.874634 376.054047,736.229431 380.517242,737.955444 
	C384.481232,739.488342 385.321625,741.259338 383.500000,745.500000 
"/>
<path fill="none" opacity="1.000000" stroke="#000000" stroke-linecap="round" stroke-linejoin="round" stroke-width="2.000000"
	d="
M380.500000,406.500000 
	C377.887848,410.221191 374.721222,413.387878 371.000000,416.000000 
"/>
<path fill="none" opacity="1.000000" stroke="#000000" stroke-linecap="round" stroke-linejoin="round" stroke-width="2.000000"
	d="
M376.000000,232.500000 
	C378.213959,232.325836 379.882629,233.224640 379.919647,235.501312 
	C379.951202,237.439194 378.611938,238.602829 376.500000,238.500000 
"/>
<path fill="none" opacity="1.000000" stroke="#000000" stroke-linecap="round" stroke-linejoin="round" stroke-width="2.000000"
	d="
M370.500000,439.000000 
	C373.250824,441.333344 371.530823,443.850983 370.408661,445.951202 
	C369.137939,448.329407 367.023743,450.240936 365.544800,452.528961 
	C364.344330,454.386200 363.498291,456.500000 365.500000,458.500000 
"/>
<path fill="none" opacity="1.000000" stroke="#000000" stroke-linecap="round" stroke-linejoin="round" stroke-width="2.000000"
	d="
M364.000000,742.000000 
	C361.801788,743.211731 359.823364,745.013733 356.998962,744.505676 
	C355.011871,744.148254 354.987732,744.052429 356.500000,741.500000 
"/>
<path fill="none" opacity="1.000000" stroke="#000000" stroke-linecap="round" stroke-linejoin="round" stroke-width="2.000000"
	d="
M352.500000,248.500000 
	C352.661804,251.452118 351.805115,254.643890 354.500000,257.000000 
"/>
<path fill="none" opacity="1.000000" stroke="#000000" stroke-linecap="round" stroke-linejoin="round" stroke-width="2.000000"
	d="
M344.500000,101.500000 
	C345.903961,104.548012 349.328522,106.585732 349.000000,110.500000 
"/>
<path fill="none" opacity="1.000000" stroke="#000000" stroke-linecap="round" stroke-linejoin="round" stroke-width="4.000000"
	d="
M388.000000,762.000000 
	C386.853088,764.741089 388.345917,768.258606 385.500000,770.500000 
"/>
<path fill="none" opacity="1.000000" stroke="#000000" stroke-linecap="round" stroke-linejoin="round" stroke-width="2.000000"
	d="
M345.500000,625.500000 
	C343.615265,629.409119 341.356537,633.162415 340.500000,637.500000 
"/>
<path fill="none" opacity="1.000000" stroke="#000000" stroke-linecap="round" stroke-linejoin="round" stroke-width="3.000000"
	d="
M353.500000,762.500000 
	C351.444336,765.464050 350.865601,768.341248 354.000000,771.000000 
"/>
<path fill="none" opacity="1.000000" stroke="#000000" stroke-linecap="round" stroke-linejoin="round" stroke-width="2.000000"
	d="
M326.500000,647.500000 
	C325.833344,647.000000 324.976196,645.961487 324.540833,646.115417 
	C323.712036,646.408569 322.997711,647.148987 323.445953,648.517700 
	C324.299194,651.123291 324.833344,653.833313 325.500000,656.500000 
"/>
<path fill="none" opacity="1.000000" stroke="#000000" stroke-linecap="round" stroke-linejoin="round" stroke-width="2.000000"
	d="
M367.500000,461.500000 
	C368.982697,461.350647 369.642212,461.835449 369.548096,463.502716 
	C369.445007,465.329407 369.156647,467.228180 370.000000,469.000000 
"/>
<path fill="none" opacity="1.000000" stroke="#000000" stroke-linecap="round" stroke-linejoin="round" stroke-width="2.000000"
	d="
M371.500000,597.000000 
	C367.611816,600.079895 368.605042,604.433167 368.500000,608.500000 
"/>
<path fill="none" opacity="1.000000" stroke="#000000" stroke-linecap="round" stroke-linejoin="round" stroke-width="2.000000"
	d="
M338.499969,644.500000 
	C337.807709,644.037659 337.115448,643.575256 336.314117,643.039978 
	C334.307892,644.776184 336.489502,647.561707 335.000000,649.500000 
"/>
<path fill="none" opacity="1.000000" stroke="#000000" stroke-linecap="round" stroke-linejoin="round" stroke-width="2.000000"
	d="
M365.500000,594.500000 
	C365.846283,596.968384 367.131989,599.003174 368.500000,601.000000 
"/>
<path fill="none" opacity="1.000000" stroke="#000000" stroke-linecap="round" stroke-linejoin="round" stroke-width="2.000000"
	d="
M352.499969,637.500000 
	C351.166626,639.500000 349.833282,641.500000 348.499969,643.500000 
"/>
<path fill="none" opacity="1.000000" stroke="#000000" stroke-linecap="round" stroke-linejoin="round" stroke-width="2.000000"
	d="
M379.500000,776.500000 
	C377.333344,777.000000 375.166656,777.500000 373.000000,778.000000 
"/>
<path fill="none" opacity="1.000000" stroke="#000000" stroke-linecap="round" stroke-linejoin="round" stroke-width="2.000000"
	d="
M332.000000,598.500000 
	C330.451111,599.851990 330.817322,601.778503 330.500000,603.500000 
"/>
<path fill="none" opacity="1.000000" stroke="#000000" stroke-linecap="round" stroke-linejoin="round" stroke-width="2.000000"
	d="
M355.500000,682.500000 
	C355.229889,684.156311 356.058685,685.922546 355.000000,687.500000 
"/>
<path fill="none" opacity="1.000000" stroke="#000000" stroke-linecap="round" stroke-linejoin="round" stroke-width="2.000000"
	d="
M376.500000,725.000000 
	C379.456390,725.951782 382.502655,725.285278 385.500000,725.500000 
"/>
<path fill="none" opacity="1.000000" stroke="#000000" stroke-linecap="round" stroke-linejoin="round" stroke-width="2.000000"
	d="
M352.500000,819.500000 
	C352.546600,823.634583 355.336273,826.771667 356.500000,830.500000 
"/>
<path fill="none" opacity="1.000000" stroke="#000000" stroke-linecap="round" stroke-linejoin="round" stroke-width="2.000000"
	d="
M373.000000,695.500000 
	C372.666656,697.666687 372.333313,699.833313 372.000000,702.000000 
"/>
<path fill="none" opacity="1.000000" stroke="#000000" stroke-linecap="round" stroke-linejoin="round" stroke-width="2.000000"
	d="
M318.500000,620.500000 
	C321.620117,620.016541 322.477509,622.361450 323.500000,624.500000 
"/>
<path fill="none" opacity="1.000000" stroke="#000000" stroke-linecap="round" stroke-linejoin="round" stroke-width="2.000000"
	d="
M344.500000,684.000000 
	C344.809814,685.370605 345.288879,686.644470 346.500000,687.500000 
"/>
<path fill="none" opacity="1.000000" stroke="#000000" stroke-linecap="round" stroke-linejoin="round" stroke-width="2.000000"
	d="
M354.500000,827.000000 
	C353.017090,827.838196 353.605652,829.268311 353.500000,830.500000 
"/>
<path fill="none" opacity="1.000000" stroke="#000000" stroke-linecap="round" stroke-linejoin="round" stroke-width="2.000000"
	d="
M350.500000,471.500000 
	C349.811401,470.177643 352.350952,467.241180 348.500000,467.500000 
"/>
<path fill="none" opacity="1.000000" stroke="#000000" stroke-linecap="round" stroke-linejoin="round" stroke-width="3.000000"
	d="
M355.500000,879.500000 
	C352.879059,880.702637 352.290985,877.868591 352.150574,876.976318 
	C350.957153,869.392639 347.293579,862.432739 346.209045,854.969604 
	C345.157501,847.733704 342.388580,841.077393 340.800354,834.045105 
	C337.954437,821.443970 333.941010,809.108154 330.777374,796.556091 
	C330.206238,794.290100 330.589600,793.849365 332.001068,793.001770 
	C341.999023,786.998352 351.945038,780.904419 362.052521,775.091309 
	C363.796753,774.088135 366.088837,773.902466 368.094666,775.905212 
	C369.252960,777.061890 370.669952,778.991760 373.000000,778.000000 
"/>
</svg>